# xmcd
#
# Track frame offsets: 
#        150
#        30675
#        52887
#        86670
#        128897
#        161462
#        199037
#        229840
#
# Disc length: 3165 seconds
#
# Revision: 0
# Processed by: cddbd v1.4PL0 Copyright (c) Steve Scherf et al.
# Submitted via: ExactAudioCopy v0.90a11
#
DISCID=5f0c5b08
DTITLE=Wayne Krantz - 2 Drink Minimum
DYEAR=1900
DGENRE=
TTITLE0=Whippersnapper
TTITLE1=Dove Gloria
TTITLE2=Shirts Off
TTITLE3=Dream Called Love
TTITLE4=AFKaP
TTITLE5=Isabelle
TTITLE6=Alliance/Secrets
TTITLE7=Lynxpaw
EXTD=
EXTT0=
EXTT1=
EXTT2=
EXTT3=
EXTT4=
EXTT5=
EXTT6=
EXTT7=
PLAYORDER=
